<?xml version="1.0" encoding="UTF-8"?>
<!DOCTYPE svg PUBLIC "-//W3C//DTD SVG 1.1//EN" "http://www.w3.org/Graphics/SVG/1.1/DTD/svg11.dtd">
<svg xmlns="http://www.w3.org/2000/svg" version="1.1" width="2000px" height="957px" style="shape-rendering:geometricPrecision; text-rendering:geometricPrecision; image-rendering:optimizeQuality; fill-rule:evenodd; clip-rule:evenodd" xmlns:xlink="http://www.w3.org/1999/xlink">
<g><path style="opacity:1" fill="#030303" d="M -0.5,-0.5 C 666.167,-0.5 1332.83,-0.5 1999.5,-0.5C 1999.5,318.5 1999.5,637.5 1999.5,956.5C 1332.83,956.5 666.167,956.5 -0.5,956.5C -0.5,637.5 -0.5,318.5 -0.5,-0.5 Z M 1863.5,803.5 C 1861.82,804.183 1861.16,805.517 1861.5,807.5C 1838.83,807.5 1816.17,807.5 1793.5,807.5C 1793.5,847.5 1793.5,887.5 1793.5,927.5C 1757.15,928.16 1721.15,927.494 1685.5,925.5C 1686.83,925.5 1688.17,925.5 1689.5,925.5C 1688.84,886.113 1689.51,846.947 1691.5,808C 1690.83,807.667 1690.17,807.333 1689.5,807C 1377.18,807.493 1064.85,807.659 752.5,807.5C 596.151,808.088 439.817,807.422 283.5,805.5C 283.5,806.5 283.5,807.5 283.5,808.5C 250.167,808.5 216.833,808.5 183.5,808.5C 183.5,813.5 183.5,818.5 183.5,823.5C 168.167,823.5 152.833,823.5 137.5,823.5C 137.5,589.5 137.5,355.5 137.5,121.5C 148.332,120.869 158.998,121.702 169.5,124C 208.833,124.167 248.167,124.333 287.5,124.5C 812.831,122.608 1338.16,121.941 1863.5,122.5C 1863.5,349.5 1863.5,576.5 1863.5,803.5 Z M 283.5,817.5 C 283.5,819.5 283.5,821.5 283.5,823.5C 253.5,823.5 223.5,823.5 193.5,823.5C 193.5,821.5 193.5,819.5 193.5,817.5C 223.5,817.5 253.5,817.5 283.5,817.5 Z"/></g>
<g><path style="opacity:1" fill="#fbfaf9" d="M 5.5,7.5 C 58.8333,7.5 112.167,7.5 165.5,7.5C 165.5,42.5 165.5,77.5 165.5,112.5C 112.167,112.5 58.8333,112.5 5.5,112.5C 5.5,77.5 5.5,42.5 5.5,7.5 Z"/></g>
<g><path style="opacity:1" fill="#fefffe" d="M 1671.5,8.5 C 1681.83,8.5 1692.17,8.5 1702.5,8.5C 1702.5,44.1667 1702.5,79.8333 1702.5,115.5C 1655.84,116.31 1609.17,116.644 1562.5,116.5C 1562.5,80.8333 1562.5,45.1667 1562.5,9.5C 1599,9.83177 1635.34,9.49844 1671.5,8.5 Z"/></g>
<g><path style="opacity:1" fill="#fefffe" d="M 1710.5,8.5 C 1747.17,9.70007 1783.83,9.70007 1820.5,8.5C 1820.5,44.1667 1820.5,79.8333 1820.5,115.5C 1783.83,116.7 1747.17,116.7 1710.5,115.5C 1710.5,79.8333 1710.5,44.1667 1710.5,8.5 Z"/></g>
<g><path style="opacity:1" fill="#fefffe" d="M 1828.5,8.5 C 1883.5,9.29362 1938.5,9.62695 1993.5,9.5C 1993.5,44.5 1993.5,79.5 1993.5,114.5C 1952.07,113.857 1910.74,114.523 1869.5,116.5C 1855.86,115.535 1842.2,115.202 1828.5,115.5C 1828.5,79.8333 1828.5,44.1667 1828.5,8.5 Z"/></g>
<g><path style="opacity:1" fill="#fefffe" d="M 177.5,9.5 C 210.5,9.5 243.5,9.5 276.5,9.5C 276.5,45.1667 276.5,80.8333 276.5,116.5C 243.5,116.5 210.5,116.5 177.5,116.5C 177.5,80.8333 177.5,45.1667 177.5,9.5 Z"/></g>
<g><path style="opacity:1" fill="#fefffe" d="M 284.5,9.5 C 334.5,9.5 384.5,9.5 434.5,9.5C 434.5,45.1667 434.5,80.8333 434.5,116.5C 384.5,116.5 334.5,116.5 284.5,116.5C 284.5,80.8333 284.5,45.1667 284.5,9.5 Z"/></g>
<g><path style="opacity:1" fill="#fefefe" d="M 442.5,9.5 C 492.5,9.5 542.5,9.5 592.5,9.5C 592.5,45.1667 592.5,80.8333 592.5,116.5C 542.5,116.5 492.5,116.5 442.5,116.5C 442.5,80.8333 442.5,45.1667 442.5,9.5 Z"/></g>
<g><path style="opacity:1" fill="#fefffe" d="M 600.5,9.5 C 651.833,9.5 703.167,9.5 754.5,9.5C 754.5,45.1667 754.5,80.8333 754.5,116.5C 703.167,116.5 651.833,116.5 600.5,116.5C 600.5,80.8333 600.5,45.1667 600.5,9.5 Z"/></g>
<g><path style="opacity:1" fill="#fefffe" d="M 762.5,9.5 C 813.5,9.5 864.5,9.5 915.5,9.5C 915.5,45.1667 915.5,80.8333 915.5,116.5C 864.5,116.5 813.5,116.5 762.5,116.5C 762.5,80.8333 762.5,45.1667 762.5,9.5 Z"/></g>
<g><path style="opacity:1" fill="#fefffe" d="M 923.5,9.5 C 973.5,9.5 1023.5,9.5 1073.5,9.5C 1073.5,45.1667 1073.5,80.8333 1073.5,116.5C 1023.5,116.5 973.5,116.5 923.5,116.5C 923.5,80.8333 923.5,45.1667 923.5,9.5 Z"/></g>
<g><path style="opacity:1" fill="#fefffe" d="M 1081.5,9.5 C 1131.83,9.5 1182.17,9.5 1232.5,9.5C 1232.5,45.1667 1232.5,80.8333 1232.5,116.5C 1182.17,116.5 1131.83,116.5 1081.5,116.5C 1081.5,80.8333 1081.5,45.1667 1081.5,9.5 Z"/></g>
<g><path style="opacity:1" fill="#fefffe" d="M 1240.5,9.5 C 1291.17,9.5 1341.83,9.5 1392.5,9.5C 1392.5,45.1667 1392.5,80.8333 1392.5,116.5C 1341.83,116.5 1291.17,116.5 1240.5,116.5C 1240.5,80.8333 1240.5,45.1667 1240.5,9.5 Z"/></g>
<g><path style="opacity:1" fill="#fefffe" d="M 1400.5,9.5 C 1451.83,9.5 1503.17,9.5 1554.5,9.5C 1554.5,45.1667 1554.5,80.8333 1554.5,116.5C 1503.17,116.5 1451.83,116.5 1400.5,116.5C 1400.5,80.8333 1400.5,45.1667 1400.5,9.5 Z"/></g>
<g><path style="opacity:1" fill="#fefffe" d="M 1873.5,123.5 C 1913.5,123.5 1953.5,123.5 1993.5,123.5C 1993.5,165.833 1993.5,208.167 1993.5,250.5C 1952.83,250.5 1912.17,250.5 1871.5,250.5C 1871.25,208.147 1871.91,165.814 1873.5,123.5 Z"/></g>
<g><path style="opacity:1" fill="#fefdfd" d="M 7.5,127.5 C 46.8333,127.5 86.1667,127.5 125.5,127.5C 125.5,170.5 125.5,213.5 125.5,256.5C 86.1667,256.5 46.8333,256.5 7.5,256.5C 7.5,213.5 7.5,170.5 7.5,127.5 Z"/></g>
<g><path style="opacity:1" fill="#000000" d="M 155.5,138.5 C 176.167,138.5 196.833,138.5 217.5,138.5C 217.5,143.5 217.5,148.5 217.5,153.5C 198.833,153.5 180.167,153.5 161.5,153.5C 161.5,165.833 161.5,178.167 161.5,190.5C 158.167,190.5 154.833,190.5 151.5,190.5C 151.5,174.5 151.5,158.5 151.5,142.5C 152.833,142.5 154.167,142.5 155.5,142.5C 155.5,141.167 155.5,139.833 155.5,138.5 Z"/></g>
<g><path style="opacity:1" fill="#000000" d="M 229.5,138.5 C 268.833,138.5 308.167,138.5 347.5,138.5C 347.5,143.5 347.5,148.5 347.5,153.5C 308.167,153.5 268.833,153.5 229.5,153.5C 229.5,148.5 229.5,143.5 229.5,138.5 Z"/></g>
<g><path style="opacity:1" fill="#000000" d="M 369.5,138.5 C 415.5,138.5 461.5,138.5 507.5,138.5C 507.5,143.5 507.5,148.5 507.5,153.5C 461.5,153.5 415.5,153.5 369.5,153.5C 369.5,148.5 369.5,143.5 369.5,138.5 Z"/></g>
<g><path style="opacity:1" fill="#000000" d="M 521.5,138.5 C 570.167,138.5 618.833,138.5 667.5,138.5C 667.5,143.5 667.5,148.5 667.5,153.5C 618.833,153.5 570.167,153.5 521.5,153.5C 521.5,148.5 521.5,143.5 521.5,138.5 Z"/></g>
<g><path style="opacity:1" fill="#000000" d="M 683.5,138.5 C 732.167,138.5 780.833,138.5 829.5,138.5C 829.5,143.5 829.5,148.5 829.5,153.5C 780.833,153.5 732.167,153.5 683.5,153.5C 683.5,148.5 683.5,143.5 683.5,138.5 Z"/></g>
<g><path style="opacity:1" fill="#000000" d="M 845.5,138.5 C 894.833,138.5 944.167,138.5 993.5,138.5C 993.5,143.5 993.5,148.5 993.5,153.5C 944.167,153.5 894.833,153.5 845.5,153.5C 845.5,148.5 845.5,143.5 845.5,138.5 Z"/></g>
<g><path style="opacity:1" fill="#000000" d="M 1011.5,138.5 C 1056.83,138.5 1102.17,138.5 1147.5,138.5C 1147.5,143.5 1147.5,148.5 1147.5,153.5C 1102.17,153.5 1056.83,153.5 1011.5,153.5C 1011.5,148.5 1011.5,143.5 1011.5,138.5 Z"/></g>
<g><path style="opacity:1" fill="#000000" d="M 1159.5,138.5 C 1207.5,138.5 1255.5,138.5 1303.5,138.5C 1303.5,143.5 1303.5,148.5 1303.5,153.5C 1266.17,153.5 1228.83,153.5 1191.5,153.5C 1191.5,159.5 1191.5,165.5 1191.5,171.5C 1188.17,171.5 1184.83,171.5 1181.5,171.5C 1181.5,165.5 1181.5,159.5 1181.5,153.5C 1174.17,153.5 1166.83,153.5 1159.5,153.5C 1159.5,148.5 1159.5,143.5 1159.5,138.5 Z"/></g>
<g><path style="opacity:1" fill="#000000" d="M 1317.5,138.5 C 1369.5,138.5 1421.5,138.5 1473.5,138.5C 1473.5,143.5 1473.5,148.5 1473.5,153.5C 1421.5,153.5 1369.5,153.5 1317.5,153.5C 1317.5,148.5 1317.5,143.5 1317.5,138.5 Z"/></g>
<g><path style="opacity:1" fill="#000000" d="M 1487.5,138.5 C 1551.5,138.5 1615.5,138.5 1679.5,138.5C 1679.5,143.5 1679.5,148.5 1679.5,153.5C 1615.5,153.5 1551.5,153.5 1487.5,153.5C 1487.5,148.5 1487.5,143.5 1487.5,138.5 Z"/></g>
<g><path style="opacity:1" fill="#000000" d="M 1695.5,138.5 C 1746.23,137.889 1796.9,138.556 1847.5,140.5C 1847.5,158.5 1847.5,176.5 1847.5,194.5C 1842.83,194.5 1838.17,194.5 1833.5,194.5C 1833.5,180.833 1833.5,167.167 1833.5,153.5C 1787.5,153.5 1741.5,153.5 1695.5,153.5C 1695.5,148.5 1695.5,143.5 1695.5,138.5 Z"/></g>
<g><path style="opacity:1" fill="#fefffe" d="M 179.5,175.5 C 179.5,250.167 179.5,324.833 179.5,399.5C 181.5,399.5 183.5,399.5 185.5,399.5C 186.795,424.08 187.462,448.746 187.5,473.5C 187.167,496.833 186.833,520.167 186.5,543.5C 184.253,544.374 181.92,544.708 179.5,544.5C 180.111,620.21 179.445,695.877 177.5,771.5C 217.54,772.018 257.54,771.351 297.5,769.5C 297.5,770.5 297.5,771.5 297.5,772.5C 254.833,772.5 212.167,772.5 169.5,772.5C 169.5,672.833 169.5,573.167 169.5,473.5C 172.833,473.5 176.167,473.5 179.5,473.5C 179.5,467.833 179.5,462.167 179.5,456.5C 176.167,456.5 172.833,456.5 169.5,456.5C 169.5,358.167 169.5,259.833 169.5,161.5C 171.5,161.5 173.5,161.5 175.5,161.5C 175.5,166.167 175.5,170.833 175.5,175.5C 176.833,175.5 178.167,175.5 179.5,175.5 Z"/></g>
<g><path style="opacity:1" fill="#fefffe" d="M 303.5,175.5 C 265.5,176.833 227.5,176.833 189.5,175.5C 194.833,175.5 200.167,175.5 205.5,175.5C 205.5,174.5 205.5,173.5 205.5,172.5C 219.5,172.5 233.5,172.5 247.5,172.5C 247.5,173.5 247.5,174.5 247.5,175.5C 266.167,175.5 284.833,175.5 303.5,175.5 Z"/></g>
<g><path style="opacity:1" fill="#fefffe" d="M 1799.5,176.5 C 1565.2,177.824 1330.87,178.49 1096.5,178.5C 865.333,178.5 634.333,178.167 403.5,177.5C 421.469,176.216 439.469,175.216 457.5,174.5C 904.833,173.5 1352.17,173.167 1799.5,173.5C 1799.5,174.5 1799.5,175.5 1799.5,176.5 Z"/></g>
<g><path style="opacity:1" fill="#020202" d="M 403.5,177.5 C 634.333,178.167 865.333,178.5 1096.5,178.5C 1330.87,178.49 1565.2,177.824 1799.5,176.5C 1799.5,298.167 1799.5,419.833 1799.5,541.5C 1797.5,541.5 1795.5,541.5 1793.5,541.5C 1793.5,612.167 1793.5,682.833 1793.5,753.5C 1298.21,751.507 802.875,750.841 307.5,751.5C 307.5,758.5 307.5,765.5 307.5,772.5C 304.167,772.5 300.833,772.5 297.5,772.5C 297.5,771.5 297.5,770.5 297.5,769.5C 257.54,771.351 217.54,772.018 177.5,771.5C 179.445,695.877 180.111,620.21 179.5,544.5C 181.92,544.708 184.253,544.374 186.5,543.5C 186.833,520.167 187.167,496.833 187.5,473.5C 187.462,448.746 186.795,424.08 185.5,399.5C 183.5,399.5 181.5,399.5 179.5,399.5C 179.5,324.833 179.5,250.167 179.5,175.5C 182.833,175.5 186.167,175.5 189.5,175.5C 227.5,176.833 265.5,176.833 303.5,175.5C 333.515,175.198 363.515,175.531 393.5,176.5C 395.608,176.14 397.608,175.473 399.5,174.5C 401.653,174.561 402.986,175.561 403.5,177.5 Z"/></g>
<g><path style="opacity:1" fill="#fefffe" d="M 205.5,183.5 C 238.204,183.057 270.871,183.723 303.5,185.5C 303.5,255.833 303.5,326.167 303.5,396.5C 298.489,396.666 293.489,396.499 288.5,396C 289.731,394.817 289.731,393.651 288.5,392.5C 287.571,393.689 287.238,395.022 287.5,396.5C 254.833,396.5 222.167,396.5 189.5,396.5C 189.5,326.167 189.5,255.833 189.5,185.5C 195.271,186.113 200.604,185.446 205.5,183.5 Z"/></g>
<g><path style="opacity:1" fill="#fefefe" d="M 311.5,185.5 C 341.239,184.882 370.905,185.548 400.5,187.5C 648.11,185.506 895.777,184.839 1143.5,185.5C 1142.92,222.194 1142.92,258.861 1143.5,295.5C 1157.43,294.279 1171.43,293.612 1185.5,293.5C 1199.57,293.612 1213.57,294.279 1227.5,295.5C 1227.5,258.833 1227.5,222.167 1227.5,185.5C 1414.83,185.5 1602.17,185.5 1789.5,185.5C 1789.5,256.5 1789.5,327.5 1789.5,398.5C 1761.53,398.232 1733.53,398.232 1705.5,398.5C 1705.5,446.167 1705.5,493.833 1705.5,541.5C 1732.36,542.054 1759.02,542.054 1785.5,541.5C 1785.5,610.5 1785.5,679.5 1785.5,748.5C 1292.83,748.5 800.167,748.5 307.5,748.5C 307.5,682.5 307.5,616.5 307.5,550.5C 308.833,550.5 310.167,550.5 311.5,550.5C 311.5,548.167 311.5,545.833 311.5,543.5C 302.833,543.5 294.167,543.5 285.5,543.5C 285.5,496.833 285.5,450.167 285.5,403.5C 294.167,403.5 302.833,403.5 311.5,403.5C 311.5,330.833 311.5,258.167 311.5,185.5 Z"/></g>
<g><path style="opacity:1" fill="#fefffe" d="M 1149.5,185.5 C 1173.5,185.5 1197.5,185.5 1221.5,185.5C 1221.5,193.833 1221.5,202.167 1221.5,210.5C 1197.5,210.5 1173.5,210.5 1149.5,210.5C 1149.5,202.167 1149.5,193.833 1149.5,185.5 Z"/></g>
<g><path style="opacity:1" fill="#000000" d="M 151.5,203.5 C 154.833,203.5 158.167,203.5 161.5,203.5C 161.5,240.5 161.5,277.5 161.5,314.5C 158.167,314.5 154.833,314.5 151.5,314.5C 151.5,277.5 151.5,240.5 151.5,203.5 Z"/></g>
<g><path style="opacity:1" fill="#000000" d="M 1833.5,211.5 C 1838.17,211.5 1842.83,211.5 1847.5,211.5C 1847.5,245.167 1847.5,278.833 1847.5,312.5C 1842.83,312.5 1838.17,312.5 1833.5,312.5C 1833.5,278.833 1833.5,245.167 1833.5,211.5 Z"/></g>
<g><path style="opacity:1" fill="#fefffe" d="M 1149.5,215.5 C 1173.51,215.167 1197.51,215.5 1221.5,216.5C 1209.5,216.833 1197.5,217.167 1185.5,217.5C 1173.15,217.499 1161.15,216.832 1149.5,215.5 Z"/></g>
<g><path style="opacity:1" fill="#fefffe" d="M 1149.5,227.5 C 1173.51,227.167 1197.51,227.5 1221.5,228.5C 1209.5,228.833 1197.5,229.167 1185.5,229.5C 1173.15,229.499 1161.15,228.832 1149.5,227.5 Z"/></g>
<g><path style="opacity:1" fill="#fefffe" d="M 1149.5,239.5 C 1173.51,239.167 1197.51,239.5 1221.5,240.5C 1209.5,240.833 1197.5,241.167 1185.5,241.5C 1173.15,241.499 1161.15,240.832 1149.5,239.5 Z"/></g>
<g><path style="opacity:1" fill="#fefffe" d="M 1149.5,251.5 C 1173.51,251.167 1197.51,251.5 1221.5,252.5C 1209.5,252.833 1197.5,253.167 1185.5,253.5C 1173.15,253.499 1161.15,252.832 1149.5,251.5 Z"/></g>
<g><path style="opacity:1" fill="#fefffe" d="M 1871.5,257.5 C 1912.17,257.5 1952.83,257.5 1993.5,257.5C 1993.5,303.167 1993.5,348.833 1993.5,394.5C 1952.83,394.5 1912.17,394.5 1871.5,394.5C 1871.5,348.833 1871.5,303.167 1871.5,257.5 Z"/></g>
<g><path style="opacity:1" fill="#fefdfd" d="M 7.5,265.5 C 46.8333,265.5 86.1667,265.5 125.5,265.5C 125.5,310.833 125.5,356.167 125.5,401.5C 86.1667,401.5 46.8333,401.5 7.5,401.5C 7.5,356.167 7.5,310.833 7.5,265.5 Z"/></g>
<g><path style="opacity:1" fill="#fefffe" d="M 1149.5,270.5 C 1173.5,270.5 1197.5,270.5 1221.5,270.5C 1221.5,275.833 1221.5,281.167 1221.5,286.5C 1222.98,286.238 1224.31,286.571 1225.5,287.5C 1200.18,288.5 1174.84,288.833 1149.5,288.5C 1149.5,282.5 1149.5,276.5 1149.5,270.5 Z"/></g>
<g><path style="opacity:1" fill="#000000" d="M 169.5,456.5 C 172.833,456.5 176.167,456.5 179.5,456.5C 179.5,462.167 179.5,467.833 179.5,473.5C 176.167,473.5 172.833,473.5 169.5,473.5C 166.833,473.5 164.167,473.5 161.5,473.5C 161.5,517.167 161.5,560.833 161.5,604.5C 158.167,604.5 154.833,604.5 151.5,604.5C 151.5,514.167 151.5,423.833 151.5,333.5C 154.833,333.5 158.167,333.5 161.5,333.5C 161.5,374.5 161.5,415.5 161.5,456.5C 164.167,456.5 166.833,456.5 169.5,456.5 Z"/></g>
<g><path style="opacity:1" fill="#000000" d="M 1833.5,335.5 C 1838.17,335.5 1842.83,335.5 1847.5,335.5C 1847.5,429.167 1847.5,522.833 1847.5,616.5C 1842.83,616.5 1838.17,616.5 1833.5,616.5C 1833.5,568.833 1833.5,521.167 1833.5,473.5C 1823.5,473.5 1813.5,473.5 1803.5,473.5C 1803.5,467.167 1803.5,460.833 1803.5,454.5C 1813.5,454.5 1823.5,454.5 1833.5,454.5C 1833.5,414.833 1833.5,375.167 1833.5,335.5 Z"/></g>
<g><path style="opacity:1" fill="#fefffe" d="M 1871.5,401.5 C 1912.17,401.5 1952.83,401.5 1993.5,401.5C 1993.5,496.167 1993.5,590.833 1993.5,685.5C 1952.83,685.5 1912.17,685.5 1871.5,685.5C 1871.5,590.833 1871.5,496.167 1871.5,401.5 Z"/></g>
<g><path style="opacity:1" fill="#fefffe" d="M 193.5,403.5 C 195.495,449.488 196.162,495.821 195.5,542.5C 197.5,542.5 199.5,542.5 201.5,542.5C 201.167,496.162 201.5,449.829 202.5,403.5C 203.5,450.162 203.833,496.829 203.5,543.5C 200.167,543.5 196.833,543.5 193.5,543.5C 193.5,496.833 193.5,450.167 193.5,403.5 Z"/></g>
<g><path style="opacity:1" fill="#fefffe" d="M 209.5,403.5 C 212.833,403.5 216.167,403.5 219.5,403.5C 219.833,450.171 219.5,496.838 218.5,543.5C 217.5,498.172 217.167,452.838 217.5,407.5C 215.5,407.5 213.5,407.5 211.5,407.5C 211.833,452.838 211.5,498.172 210.5,543.5C 209.5,496.838 209.167,450.171 209.5,403.5 Z"/></g>
<g><path style="opacity:1" fill="#fefffe" d="M 225.5,403.5 C 226.499,449.664 226.832,495.997 226.5,542.5C 228.5,542.5 230.5,542.5 232.5,542.5C 232.333,496.165 232.5,449.832 233,403.5C 233.5,450.165 233.667,496.832 233.5,543.5C 230.833,543.5 228.167,543.5 225.5,543.5C 225.5,496.833 225.5,450.167 225.5,403.5 Z"/></g>
<g><path style="opacity:1" fill="#fefffe" d="M 239.5,403.5 C 250.833,403.5 262.167,403.5 273.5,403.5C 273.5,450.167 273.5,496.833 273.5,543.5C 264.833,543.5 256.167,543.5 247.5,543.5C 247.5,497.5 247.5,451.5 247.5,405.5C 245.5,405.5 243.5,405.5 241.5,405.5C 241.833,451.505 241.5,497.505 240.5,543.5C 239.5,496.838 239.167,450.171 239.5,403.5 Z"/></g>
<g><path style="opacity:1" fill="#fefffe" d="M 1713.5,403.5 C 1722.83,403.5 1732.17,403.5 1741.5,403.5C 1741.5,447.167 1741.5,490.833 1741.5,534.5C 1732.17,534.5 1722.83,534.5 1713.5,534.5C 1713.5,490.833 1713.5,447.167 1713.5,403.5 Z"/></g>
<g><path style="opacity:1" fill="#fefffe" d="M 1747.5,403.5 C 1748.83,424.99 1749.5,446.823 1749.5,469C 1749.17,490.833 1748.83,512.667 1748.5,534.5C 1747.5,490.838 1747.17,447.172 1747.5,403.5 Z"/></g>
<g><path style="opacity:1" fill="#fefffe" d="M 1763.5,403.5 C 1764.83,424.99 1765.5,446.823 1765.5,469C 1765.17,490.833 1764.83,512.667 1764.5,534.5C 1763.5,490.838 1763.17,447.172 1763.5,403.5 Z"/></g>
<g><path style="opacity:1" fill="#fefffe" d="M 1771.5,403.5 C 1772.83,424.99 1773.5,446.823 1773.5,469C 1773.17,490.833 1772.83,512.667 1772.5,534.5C 1771.5,490.838 1771.17,447.172 1771.5,403.5 Z"/></g>
<g><path style="opacity:1" fill="#fefffe" d="M 1786.5,403.5 C 1787.5,403.5 1788.5,403.5 1789.5,403.5C 1789.5,447.167 1789.5,490.833 1789.5,534.5C 1788.5,534.5 1787.5,534.5 1786.5,534.5C 1786.5,490.833 1786.5,447.167 1786.5,403.5 Z"/></g>
<g><path style="opacity:1" fill="#fefefe" d="M 7.5,410.5 C 46.8333,410.5 86.1667,410.5 125.5,410.5C 125.5,455.5 125.5,500.5 125.5,545.5C 86.1667,545.5 46.8333,545.5 7.5,545.5C 7.5,500.5 7.5,455.5 7.5,410.5 Z"/></g>
<g><path style="opacity:1" fill="#fefffe" d="M 1799.5,541.5 C 1799.5,612.5 1799.5,683.5 1799.5,754.5C 1302.83,754.5 806.167,754.5 309.5,754.5C 310.12,760.926 309.453,766.926 307.5,772.5C 307.5,765.5 307.5,758.5 307.5,751.5C 802.875,750.841 1298.21,751.507 1793.5,753.5C 1793.5,682.833 1793.5,612.167 1793.5,541.5C 1795.5,541.5 1797.5,541.5 1799.5,541.5 Z"/></g>
<g><path style="opacity:1" fill="#fefefe" d="M 189.5,550.5 C 225.5,550.5 261.5,550.5 297.5,550.5C 297.5,621.167 297.5,691.833 297.5,762.5C 261.5,762.5 225.5,762.5 189.5,762.5C 189.5,691.833 189.5,621.167 189.5,550.5 Z"/></g>
<g><path style="opacity:1" fill="#fefdfd" d="M 7.5,554.5 C 46.8333,554.5 86.1667,554.5 125.5,554.5C 125.5,598.833 125.5,643.167 125.5,687.5C 86.1667,687.5 46.8333,687.5 7.5,687.5C 7.5,643.167 7.5,598.833 7.5,554.5 Z"/></g>
<g><path style="opacity:1" fill="#000000" d="M 151.5,621.5 C 154.833,621.5 158.167,621.5 161.5,621.5C 161.5,659.167 161.5,696.833 161.5,734.5C 158.167,734.5 154.833,734.5 151.5,734.5C 151.5,696.833 151.5,659.167 151.5,621.5 Z"/></g>
<g><path style="opacity:1" fill="#000000" d="M 1833.5,627.5 C 1838.17,627.5 1842.83,627.5 1847.5,627.5C 1847.5,661.167 1847.5,694.833 1847.5,728.5C 1842.83,728.5 1838.17,728.5 1833.5,728.5C 1833.5,694.833 1833.5,661.167 1833.5,627.5 Z"/></g>
<g><path style="opacity:1" fill="#000000" d="M 222.5,684.5 C 226.527,684.281 227.194,685.448 224.5,688C 223.552,688.483 222.552,688.649 221.5,688.5C 221.433,687.041 221.766,685.708 222.5,684.5 Z"/></g>
<g><path style="opacity:1" fill="#fefffe" d="M 1685.5,925.5 C 1721.15,927.494 1757.15,928.16 1793.5,927.5C 1793.5,887.5 1793.5,847.5 1793.5,807.5C 1816.17,807.5 1838.83,807.5 1861.5,807.5C 1861.16,805.517 1861.82,804.183 1863.5,803.5C 1863.5,805.167 1863.5,806.833 1863.5,808.5C 1840.83,808.5 1818.17,808.5 1795.5,808.5C 1795.5,847.5 1795.5,886.5 1795.5,925.5C 1858.87,924.908 1922.21,925.575 1985.5,927.5C 1985.5,887.833 1985.5,848.167 1985.5,808.5C 1947.5,808.5 1909.5,808.5 1871.5,808.5C 1871.5,769.833 1871.5,731.167 1871.5,692.5C 1912.17,692.5 1952.83,692.5 1993.5,692.5C 1993.5,778.5 1993.5,864.5 1993.5,950.5C 1393.5,950.5 793.5,950.5 193.5,950.5C 193.5,941.5 193.5,932.5 193.5,923.5C 223.833,923.5 254.167,923.5 284.5,923.5C 284.5,925.167 284.5,926.833 284.5,928.5C 287.167,928.5 289.833,928.5 292.5,928.5C 292.5,926.833 292.5,925.167 292.5,923.5C 341.167,923.5 389.833,923.5 438.5,923.5C 438.5,924.5 438.5,925.5 438.5,926.5C 441.167,926.5 443.833,926.5 446.5,926.5C 446.5,925.5 446.5,924.5 446.5,923.5C 495.833,923.5 545.167,923.5 594.5,923.5C 594.5,924.5 594.5,925.5 594.5,926.5C 597.167,926.5 599.833,926.5 602.5,926.5C 602.5,925.5 602.5,924.5 602.5,923.5C 913.667,923.735 1224.83,923.735 1536,923.5C 1585.89,923.528 1635.72,924.195 1685.5,925.5 Z"/></g>
<g><path style="opacity:1" fill="#fefdfd" d="M 7.5,696.5 C 46.8333,696.5 86.1667,696.5 125.5,696.5C 125.5,739.167 125.5,781.833 125.5,824.5C 86.1667,824.5 46.8333,824.5 7.5,824.5C 7.5,781.833 7.5,739.167 7.5,696.5 Z"/></g>
<g><path style="opacity:1" fill="#000000" d="M 1833.5,743.5 C 1838.17,743.5 1842.83,743.5 1847.5,743.5C 1848.13,758.009 1847.46,772.343 1845.5,786.5C 1744.17,787.5 1642.84,787.833 1541.5,787.5C 1541.5,783.833 1541.5,780.167 1541.5,776.5C 1638.83,776.5 1736.17,776.5 1833.5,776.5C 1833.5,765.5 1833.5,754.5 1833.5,743.5 Z"/></g>
<g><path style="opacity:1" fill="#000000" d="M 151.5,747.5 C 154.833,747.5 158.167,747.5 161.5,747.5C 161.5,757.167 161.5,766.833 161.5,776.5C 182.167,776.5 202.833,776.5 223.5,776.5C 223.5,780.167 223.5,783.833 223.5,787.5C 199.5,787.5 175.5,787.5 151.5,787.5C 151.5,774.167 151.5,760.833 151.5,747.5 Z"/></g>
<g><path style="opacity:1" fill="#000000" d="M 241.5,776.5 C 280.167,776.5 318.833,776.5 357.5,776.5C 357.5,780.167 357.5,783.833 357.5,787.5C 318.833,787.5 280.167,787.5 241.5,787.5C 241.5,783.833 241.5,780.167 241.5,776.5 Z"/></g>
<g><path style="opacity:1" fill="#000000" d="M 371.5,776.5 C 416.167,776.5 460.833,776.5 505.5,776.5C 505.5,780.167 505.5,783.833 505.5,787.5C 460.833,787.5 416.167,787.5 371.5,787.5C 371.5,783.833 371.5,780.167 371.5,776.5 Z"/></g>
<g><path style="opacity:1" fill="#000000" d="M 525.5,776.5 C 570.167,776.5 614.833,776.5 659.5,776.5C 659.5,780.167 659.5,783.833 659.5,787.5C 614.833,787.5 570.167,787.5 525.5,787.5C 525.5,783.833 525.5,780.167 525.5,776.5 Z"/></g>
<g><path style="opacity:1" fill="#000000" d="M 679.5,776.5 C 728.167,776.5 776.833,776.5 825.5,776.5C 825.5,780.167 825.5,783.833 825.5,787.5C 776.833,787.5 728.167,787.5 679.5,787.5C 679.5,783.833 679.5,780.167 679.5,776.5 Z"/></g>
<g><path style="opacity:1" fill="#000000" d="M 845.5,776.5 C 890.167,776.5 934.833,776.5 979.5,776.5C 979.5,780.167 979.5,783.833 979.5,787.5C 934.833,787.5 890.167,787.5 845.5,787.5C 845.5,783.833 845.5,780.167 845.5,776.5 Z"/></g>
<g><path style="opacity:1" fill="#000000" d="M 991.5,776.5 C 1039.5,776.5 1087.5,776.5 1135.5,776.5C 1135.5,780.167 1135.5,783.833 1135.5,787.5C 1087.5,787.5 1039.5,787.5 991.5,787.5C 991.5,783.833 991.5,780.167 991.5,776.5 Z"/></g>
<g><path style="opacity:1" fill="#000000" d="M 1151.5,776.5 C 1200.83,776.5 1250.17,776.5 1299.5,776.5C 1299.5,780.167 1299.5,783.833 1299.5,787.5C 1250.17,787.5 1200.83,787.5 1151.5,787.5C 1151.5,783.833 1151.5,780.167 1151.5,776.5 Z"/></g>
<g><path style="opacity:1" fill="#000000" d="M 1317.5,776.5 C 1385.5,776.5 1453.5,776.5 1521.5,776.5C 1521.5,780.167 1521.5,783.833 1521.5,787.5C 1453.5,787.5 1385.5,787.5 1317.5,787.5C 1317.5,783.833 1317.5,780.167 1317.5,776.5 Z"/></g>
<g><path style="opacity:1" fill="#fefffe" d="M 752.5,807.5 C 596.334,808.5 440.001,808.833 283.5,808.5C 283.5,807.5 283.5,806.5 283.5,805.5C 439.817,807.422 596.151,808.088 752.5,807.5 Z"/></g>
<g><path style="opacity:1" fill="#fefffe" d="M 295.5,813.5 C 343.167,813.5 390.833,813.5 438.5,813.5C 438.5,848.5 438.5,883.5 438.5,918.5C 389.833,918.5 341.167,918.5 292.5,918.5C 292.5,884.833 292.5,851.167 292.5,817.5C 293.5,817.5 294.5,817.5 295.5,817.5C 295.5,816.167 295.5,814.833 295.5,813.5 Z"/></g>
<g><path style="opacity:1" fill="#fefefe" d="M 446.5,813.5 C 495.833,813.5 545.167,813.5 594.5,813.5C 594.5,848.5 594.5,883.5 594.5,918.5C 545.167,918.5 495.833,918.5 446.5,918.5C 446.5,883.5 446.5,848.5 446.5,813.5 Z"/></g>
<g><path style="opacity:1" fill="#fefefe" d="M 602.5,813.5 C 652.5,813.5 702.5,813.5 752.5,813.5C 752.5,848.5 752.5,883.5 752.5,918.5C 702.5,918.5 652.5,918.5 602.5,918.5C 602.5,883.5 602.5,848.5 602.5,813.5 Z"/></g>
<g><path style="opacity:1" fill="#fefffe" d="M 760.5,813.5 C 810.5,813.5 860.5,813.5 910.5,813.5C 910.5,848.5 910.5,883.5 910.5,918.5C 860.5,918.5 810.5,918.5 760.5,918.5C 760.5,883.5 760.5,848.5 760.5,813.5 Z"/></g>
<g><path style="opacity:1" fill="#fefffe" d="M 918.5,813.5 C 968.167,813.5 1017.83,813.5 1067.5,813.5C 1067.5,848.5 1067.5,883.5 1067.5,918.5C 1017.83,918.5 968.167,918.5 918.5,918.5C 918.5,883.5 918.5,848.5 918.5,813.5 Z"/></g>
<g><path style="opacity:1" fill="#fefffe" d="M 1075.5,813.5 C 1125.17,813.5 1174.83,813.5 1224.5,813.5C 1224.5,848.5 1224.5,883.5 1224.5,918.5C 1174.83,918.5 1125.17,918.5 1075.5,918.5C 1075.5,883.5 1075.5,848.5 1075.5,813.5 Z"/></g>
<g><path style="opacity:1" fill="#fefffe" d="M 1232.5,813.5 C 1283.17,813.5 1333.83,813.5 1384.5,813.5C 1384.5,848.5 1384.5,883.5 1384.5,918.5C 1333.83,918.5 1283.17,918.5 1232.5,918.5C 1232.5,883.5 1232.5,848.5 1232.5,813.5 Z"/></g>
<g><path style="opacity:1" fill="#fefffe" d="M 1392.5,813.5 C 1485.17,813.5 1577.83,813.5 1670.5,813.5C 1670.5,848.5 1670.5,883.5 1670.5,918.5C 1577.83,918.5 1485.17,918.5 1392.5,918.5C 1392.5,883.5 1392.5,848.5 1392.5,813.5 Z"/></g>
<g><path style="opacity:1" fill="#fefffe" d="M 1803.5,815.5 C 1860.83,815.5 1918.17,815.5 1975.5,815.5C 1975.5,849.833 1975.5,884.167 1975.5,918.5C 1918.17,918.5 1860.83,918.5 1803.5,918.5C 1803.5,884.167 1803.5,849.833 1803.5,815.5 Z"/></g>
<g><path style="opacity:1" fill="#fefffe" d="M 283.5,817.5 C 284.498,850.996 284.832,884.663 284.5,918.5C 254.167,918.5 223.833,918.5 193.5,918.5C 193.5,886.833 193.5,855.167 193.5,823.5C 223.5,823.5 253.5,823.5 283.5,823.5C 283.5,821.5 283.5,819.5 283.5,817.5 Z"/></g>
<g><path style="opacity:1" fill="#fefdfd" d="M 7.5,831.5 C 66.1667,831.5 124.833,831.5 183.5,831.5C 183.5,871.167 183.5,910.833 183.5,950.5C 124.833,950.5 66.1667,950.5 7.5,950.5C 7.5,910.833 7.5,871.167 7.5,831.5 Z"/></g>
<g><path style="opacity:1" fill="#000000" d="M 386.5,860.5 C 387.077,859.227 387.743,859.227 388.5,860.5C 388.03,861.463 387.363,861.463 386.5,860.5 Z"/></g>
<g><path style="opacity:1" fill="#000000" d="M 75.5,867.5 C 76.3764,867.369 77.0431,867.702 77.5,868.5C 75.9929,872.355 75.3262,872.021 75.5,867.5 Z"/></g>
</svg>
